<mxfile host="app.diagrams.net" modified="2022-10-20T13:57:22.597Z" agent="5.0 (Windows NT 10.0; Win64; x64) AppleWebKit/537.36 (KHTML, like Gecko) Chrome/104.0.5112.81 Safari/537.36" etag="Ahy1bBmHQjNvbsxt5Kf4" version="20.4.2" type="github">
  <diagram id="kgpKYQtTHZ0yAKxKKP6v" name="Page-1">
    <mxGraphModel dx="1483" dy="821" grid="1" gridSize="10" guides="1" tooltips="1" connect="1" arrows="1" fold="1" page="1" pageScale="1" pageWidth="850" pageHeight="1100" math="0" shadow="0">
      <root>
        <mxCell id="0" />
        <mxCell id="1" parent="0" />
        <mxCell id="3nuBFxr9cyL0pnOWT2aG-1" value="UI" style="shape=umlLifeline;perimeter=lifelinePerimeter;container=1;collapsible=0;recursiveResize=0;rounded=0;shadow=0;strokeWidth=1;" parent="1" vertex="1">
          <mxGeometry x="120" y="80" width="100" height="300" as="geometry" />
        </mxCell>
        <mxCell id="3nuBFxr9cyL0pnOWT2aG-2" value="" style="points=[];perimeter=orthogonalPerimeter;rounded=0;shadow=0;strokeWidth=1;" parent="3nuBFxr9cyL0pnOWT2aG-1" vertex="1">
          <mxGeometry x="45" y="70" width="10" height="190" as="geometry" />
        </mxCell>
        <mxCell id="3nuBFxr9cyL0pnOWT2aG-3" value="" style="verticalAlign=bottom;startArrow=oval;endArrow=block;startSize=8;shadow=0;strokeWidth=1;" parent="3nuBFxr9cyL0pnOWT2aG-1" target="3nuBFxr9cyL0pnOWT2aG-2" edge="1">
          <mxGeometry relative="1" as="geometry">
            <mxPoint x="-15" y="70" as="sourcePoint" />
          </mxGeometry>
        </mxCell>
        <mxCell id="3nuBFxr9cyL0pnOWT2aG-5" value="Server" style="shape=umlLifeline;perimeter=lifelinePerimeter;container=1;collapsible=0;recursiveResize=0;rounded=0;shadow=0;strokeWidth=1;" parent="1" vertex="1">
          <mxGeometry x="360" y="80" width="100" height="300" as="geometry" />
        </mxCell>
        <mxCell id="3nuBFxr9cyL0pnOWT2aG-6" value="" style="points=[];perimeter=orthogonalPerimeter;rounded=0;shadow=0;strokeWidth=1;" parent="3nuBFxr9cyL0pnOWT2aG-5" vertex="1">
          <mxGeometry x="45" y="80" width="10" height="160" as="geometry" />
        </mxCell>
        <mxCell id="5vdfyk2JFr_zQxt2YWRC-3" value="payment submit (via payment service API)" style="verticalAlign=bottom;endArrow=block;entryX=0;entryY=0;shadow=0;strokeWidth=1;exitX=0.999;exitY=0.473;exitDx=0;exitDy=0;exitPerimeter=0;" edge="1" parent="3nuBFxr9cyL0pnOWT2aG-5" source="3nuBFxr9cyL0pnOWT2aG-2">
          <mxGeometry relative="1" as="geometry">
            <mxPoint x="-170" y="160" as="sourcePoint" />
            <mxPoint x="45" y="159.6400000000001" as="targetPoint" />
          </mxGeometry>
        </mxCell>
        <mxCell id="3nuBFxr9cyL0pnOWT2aG-8" value="order information" style="verticalAlign=bottom;endArrow=block;entryX=0;entryY=0;shadow=0;strokeWidth=1;" parent="1" source="3nuBFxr9cyL0pnOWT2aG-2" target="3nuBFxr9cyL0pnOWT2aG-6" edge="1">
          <mxGeometry relative="1" as="geometry">
            <mxPoint x="275" y="160" as="sourcePoint" />
          </mxGeometry>
        </mxCell>
        <mxCell id="3nuBFxr9cyL0pnOWT2aG-9" value="payment request (via payment service API)" style="verticalAlign=bottom;endArrow=block;entryX=0.996;entryY=0.263;shadow=0;strokeWidth=1;exitX=0.003;exitY=0.248;exitDx=0;exitDy=0;exitPerimeter=0;entryDx=0;entryDy=0;entryPerimeter=0;" parent="1" source="3nuBFxr9cyL0pnOWT2aG-6" target="3nuBFxr9cyL0pnOWT2aG-2" edge="1">
          <mxGeometry relative="1" as="geometry">
            <mxPoint x="344" y="200" as="sourcePoint" />
            <mxPoint x="179.0000000000001" y="200" as="targetPoint" />
          </mxGeometry>
        </mxCell>
        <mxCell id="5vdfyk2JFr_zQxt2YWRC-2" value="user" style="text;html=1;align=center;verticalAlign=middle;resizable=0;points=[];autosize=1;strokeColor=none;fillColor=none;" vertex="1" parent="1">
          <mxGeometry x="80" y="120" width="50" height="30" as="geometry" />
        </mxCell>
        <mxCell id="5vdfyk2JFr_zQxt2YWRC-4" value="Restaurant" style="shape=umlLifeline;perimeter=lifelinePerimeter;container=1;collapsible=0;recursiveResize=0;rounded=0;shadow=0;strokeWidth=1;" vertex="1" parent="1">
          <mxGeometry x="520" y="80" width="100" height="300" as="geometry" />
        </mxCell>
        <mxCell id="5vdfyk2JFr_zQxt2YWRC-5" value="" style="points=[];perimeter=orthogonalPerimeter;rounded=0;shadow=0;strokeWidth=1;" vertex="1" parent="5vdfyk2JFr_zQxt2YWRC-4">
          <mxGeometry x="45" y="80" width="10" height="160" as="geometry" />
        </mxCell>
        <mxCell id="5vdfyk2JFr_zQxt2YWRC-6" value="order information + pay" style="verticalAlign=bottom;endArrow=block;entryX=0;entryY=0;shadow=0;strokeWidth=1;exitX=1.024;exitY=0.503;exitDx=0;exitDy=0;exitPerimeter=0;" edge="1" parent="5vdfyk2JFr_zQxt2YWRC-4" source="3nuBFxr9cyL0pnOWT2aG-6">
          <mxGeometry relative="1" as="geometry">
            <mxPoint x="-110" y="160" as="sourcePoint" />
            <mxPoint x="45" y="159.6400000000001" as="targetPoint" />
          </mxGeometry>
        </mxCell>
        <mxCell id="5vdfyk2JFr_zQxt2YWRC-9" value="order status" style="html=1;verticalAlign=bottom;endArrow=block;rounded=0;exitX=-0.028;exitY=0.75;exitDx=0;exitDy=0;exitPerimeter=0;entryX=1.018;entryY=0.748;entryDx=0;entryDy=0;entryPerimeter=0;" edge="1" parent="1" source="5vdfyk2JFr_zQxt2YWRC-5" target="3nuBFxr9cyL0pnOWT2aG-6">
          <mxGeometry width="80" relative="1" as="geometry">
            <mxPoint x="450" y="290" as="sourcePoint" />
            <mxPoint x="530" y="290" as="targetPoint" />
          </mxGeometry>
        </mxCell>
        <mxCell id="5vdfyk2JFr_zQxt2YWRC-11" value="order status" style="html=1;verticalAlign=bottom;endArrow=block;rounded=0;exitX=-0.001;exitY=0.749;exitDx=0;exitDy=0;exitPerimeter=0;entryX=1.004;entryY=0.684;entryDx=0;entryDy=0;entryPerimeter=0;" edge="1" parent="1" source="3nuBFxr9cyL0pnOWT2aG-6" target="3nuBFxr9cyL0pnOWT2aG-2">
          <mxGeometry width="80" relative="1" as="geometry">
            <mxPoint x="399.5399999999998" y="280.32" as="sourcePoint" />
            <mxPoint x="250.00000000000006" y="279.99999999999994" as="targetPoint" />
          </mxGeometry>
        </mxCell>
      </root>
    </mxGraphModel>
  </diagram>
</mxfile>
